# AST/ASF file generated using VICON BodyLanguage
# -----------------------------------------------
:version 1.10
:name VICON
:units
  mass 1.0
  length 0.45
  angle deg
:documentation
   .ast/.asf automatically generated from VICON data using
   VICON BodyBuilder and BodyLanguage model FoxedUp or BRILLIANT.MOD
:root
   order TX TY TZ RX RY RZ
   axis XYZ
   position 0 0 0  
   orientation 0 0 0 
:bonedata
  begin
     id 1 
     name lhipjoint
     direction 0.661853 -0.702389 0.261917 
     length 2.64193 
     axis 0 0 0  XYZ
  end
  begin
     id 2 
     name lfemur
     direction 0.34202 -0.939693 0  
     length 7.01722  
     axis 0 0 20  XYZ
    dof rx ry rz
    limits (-160.0 20.0)
           (-70.0 70.0)
           (-60.0 70.0)
  end
  begin
     id 3 
     name ltibia
     direction 0.34202 -0.939693 0   
     length 8.25008   
     axis 0 0 20   XYZ
    dof rx
    limits (-10.0 170.0)
  end
  begin
     id 4 
     name lfoot
     direction 0.0709916 -0.195048 0.978221   
     length 2.31941   
     axis -90 7.62852e-016 20   XYZ
    dof rx rz
    limits (-45.0 90.0)
           (-70.0 20.0)
  end
  begin
     id 5 
     name ltoes
     direction 1.53586e-011 -4.22017e-011 1   
     length 1.16486   
     axis -90 7.62852e-016 20   XYZ
    dof rx
    limits (-90.0 20.0)
  end
  begin
     id 6 
     name rhipjoint
     direction -0.638185 -0.721362 0.268992   
     length 2.57244  
     axis 0 0 0  XYZ 
  end
  begin
     id 7 
     name rfemur
     direction -0.34202 -0.939693 0   
     length 7.07017   
     axis 0 0 -20   XYZ
    dof rx ry rz
    limits (-160.0 20.0)
           (-70.0 70.0)
           (-70.0 60.0)
  end
  begin
     id 8 
     name rtibia
     direction -0.34202 -0.939693 0   
     length 8.20386   
     axis 0 0 -20   XYZ
    dof rx
    limits (-10.0 170.0)
 end
 begin
     id 9 
     name rfoot
     direction -0.0822429 -0.225961 0.970658   
     length 2.32215  
     axis -90 -7.62852e-016 -20   XYZ
    dof rx rz
    limits (-45.0 90.0)
           (-20.0 70.0)
  end
  begin
     id 10 
     name rtoes
     direction -1.53597e-011 -4.21689e-011 1   
     length 1.16333   
     axis -90 -7.62852e-016 -20   XYZ
    dof rx
    limits (-90.0 20.0)
  end
  begin
     id 11 
     name lowerback
     direction -0.0131557 0.998589 -0.0514484   
     length 2.14993   
     axis 0 0 0   XYZ
    dof rx ry rz
    limits (-20.0 45.0)
           (-30.0 30.0)
           (-30.0 30.0)
  end
  begin
     id 12 
     name upperback
     direction -0.000776481 0.999993 0.00352685   
     length 2.15301   
     axis 0 0 0   XYZ
    dof rx ry rz
    limits (-20.0 45.0)
           (-30.0 30.0)
           (-30.0 30.0)
  end
  begin
     id 13 
     name thorax
     direction 0.00438186 0.999609 0.0276143   
     length 2.15424   
     axis 0 0 0   XYZ
    dof rx ry rz
    limits (-20.0 45.0)
           (-30.0 30.0)
           (-30.0 30.0)
  end
  begin
     id 14 
     name lowerneck
     direction -0.0488006 0.998094 0.0377807   
     length 1.90481   
     axis 0 0 0   XYZ
    dof rx ry rz
    limits (-20.0 45.0)
           (-30.0 30.0)
           (-30.0 30.0)
  end
  begin
     id 15 
     name upperneck
     direction 0.0443769 0.990702 -0.12861   
     length 1.91305   
     axis 0 0 0   XYZ
    dof rx ry rz
    limits (-20.0 45.0)
           (-30.0 30.0)
           (-30.0 30.0)
  end
  begin
     id 16
     name head
     direction 0.0165599 0.998647 -0.0492982  
     length 1.92369  
     axis 0 0 0   XYZ
    dof rx ry rz
    limits (-20.0 45.0)
           (-30.0 30.0)
           (-30.0 30.0)
  end
  begin
     id 17 
     name lclavicle
     direction 0.911936 0.410197 -0.0105506  
     length 3.52622  
     axis 0 0 0   XYZ
    dof ry rz
    limits (-20.0 10.0)
           (0.0 20.0)
  end
  begin
     id 18 
     name lhumerus
     direction 1 -4.48974e-011 -2.48591e-028   
     length 5.47651   
     axis 180 -30 -90   XYZ
    dof rx ry rz
    limits (-60.0 90.0)
           (-90.0 90.0)
           (-90.0 90.0)
  end
  begin
     id 19
     name lradius
     direction 1 -4.48938e-011 -4.40099e-027   
     length 3.09058   
     axis 180 -30 -90   XYZ
    dof rx
    limits (-10.0 170.0)
  end
  begin
     id 20
     name lwrist
     direction 1 -4.49042e-011 -2.99852e-027   
     length 1.54529   
     axis 1.95339e-015 90 90   XYZ
    dof ry
    limits (-180.0 0.0)
 end
  begin
     id 21 
     name lhand
     direction 1 -4.48815e-011 -5.98193e-027   
     length 0.771611   
     axis 3.82337e-015 90 90   XYZ
    dof rx rz
    limits (-90.0 90.0)
           (-45.0 45.0)
  end
  begin
     id 22 
     name lfingers
     direction 1 -4.49034e-011 -1.1993e-026   
     length 0.622093   
     axis 7.64668e-015 90 90   XYZ
    dof rx
    limits (0.0 90.0)
  end
  begin
     id 23
     name lthumb
     direction 0.707107 -6.34867e-011 0.707107   
     length 0.893204   
     axis -90 45 -1.62303e-014   XYZ
    dof rx rz
    limits (-45.0 45.0)
           (-45.0 45.0)
  end
  begin
     id 24 
     name rclavicle
     direction -0.93442 0.355634 -0.0195692   
     length 3.62463  
     axis 0 0 0   XYZ 
    dof ry rz
    limits (-10.0 20.0)
           (-20.0 0.0)
  end
  begin
     id 25 
     name rhumerus
     direction -1 -4.48957e-011 -1.19147e-027  
     length 5.14182   
     axis 180 30 90   XYZ
    dof rx ry rz
    limits (-90.0 60.0)
           (-90.0 90.0)
           (-90.0 90.0)
  end
  begin
     id 26 
     name rradius
     direction -1 -4.48952e-011 -3.81062e-027   
     length 3.35565   
     axis 180 30 90   XYZ
    dof rx
    limits (-10.0 170.0)
  end
  begin
     id 27 
     name rwrist
     direction -1 -4.48973e-011 -2.99621e-027   
     length 1.67782   
     axis 1.95339e-015 -90 -90   XYZ
    dof ry
    limits (-180.0 0.0)
  end
  begin
     id 28
     name rhand
     direction -1 -4.48895e-011 -5.98727e-027   
     length 0.801042   
     axis 3.82337e-015 -90 -90   XYZ
    dof rx rz
    limits (-90.0 90.0)
           (-45.0 45.0)
  end
  begin
     id 29
     name rfingers
     direction -1 -4.49065e-011 -1.19972e-026   
     length 0.645821   
     axis 7.64668e-015 -90 -90   XYZ
    dof rx
    limits (0.0 90.0)
  end
  begin
     id 30
     name rthumb
     direction -0.707107 -6.34957e-011 0.707107   
     length 0.927273   
     axis -90 -45 1.62303e-014   XYZ
    dof rx rz
    limits (-45.0 45.0)
           (-45.0 45.0)
  end
:hierarchy
  begin
    root lhipjoint rhipjoint lowerback
    lhipjoint lfemur
    lfemur ltibia
    ltibia lfoot
    lfoot ltoes
    rhipjoint rfemur
    rfemur rtibia
    rtibia rfoot
    rfoot rtoes
    lowerback upperback
    upperback thorax
    thorax lowerneck lclavicle rclavicle
    lowerneck upperneck
    upperneck head
    lclavicle lhumerus
    lhumerus lradius
    lradius lwrist
    lwrist lhand lthumb
    lhand lfingers
    rclavicle rhumerus
    rhumerus rradius
    rradius rwrist
    rwrist rhand rthumb
    rhand rfingers
  end

#!OML:ASF E:\Style4\Style4.ASF
:FULLY-SPECIFIED
:DEGREES
539
root 1.16919 16.931 -1.41285 5.29096 -21.1027 3.27721
lowerback 17.2536 1.11619 -1.50673
upperback 7.0896 1.135 0.0859083
thorax -2.12976 0.500882 0.732653
lowerneck 0.870019 -5.11514 -6.50453
upperneck -3.35864 -6.825 4.99763
head -0.791709 -3.40803 2.75373
rclavicle -1.86858e-014 9.54166e-015
rhumerus -16.8044 22.4068 -85.8615
rradius 122.595
rwrist 20.861
rhand 14.4886 -2.58993
rfingers 7.12502
rthumb 39.3701 -28.0029
lclavicle -1.86858e-014 9.54166e-015
lhumerus -6.63755 -29.3491 82.0135
lradius 116.416
lwrist -14.6735
lhand 19.4499 38.0956
lfingers 7.12502
lthumb 44.0223 61.9702
rfemur -38.2574 7.35226 10.8794
rtibia 50.8399
rfoot -18.6209 -7.28306
rtoes -19.8396
lfemur -31.6062 10.6091 -25.8756
ltibia 51.9292
lfoot -27.9486 14.9324
ltoes -12.8341
540
root 1.16318 16.9227 -1.42113 5.2715 -20.9842 3.3006
lowerback 17.2872 1.12009 -1.49882
upperback 7.12184 1.14047 0.0772003
thorax -2.11291 0.503522 0.717806
lowerneck 0.896334 -5.14784 -6.48096
upperneck -3.41545 -6.86797 5.03716
head -0.811124 -3.43036 2.76472
rclavicle -1.90833e-014 -2.38542e-015
rhumerus -16.6381 22.1816 -85.7537
rradius 122.627
rwrist 20.9412
rhand 14.5207 -2.85041
rfingers 7.12502
rthumb 39.4003 -28.2546
lclavicle -1.90833e-014 -2.38542e-015
lhumerus -6.48095 -29.4099 81.823
lradius 116.575
lwrist -14.7718
lhand 19.1163 37.9722
lfingers 7.12502
lthumb 43.711 61.962
rfemur -38.3182 7.27736 10.8942
rtibia 50.9934
rfoot -18.6495 -7.36417
rtoes -20.0897
lfemur -31.6966 10.5702 -25.8652
ltibia 52.0735
lfoot -27.8822 14.879
ltoes -12.9731
541
root 1.15532 16.9128 -1.4288 5.25993 -20.8395 3.32648
lowerback 17.3048 1.10836 -1.53348
upperback 7.14937 1.12034 0.0942369
thorax -2.09326 0.492546 0.75909
lowerneck 0.894379 -5.16404 -6.48338
upperneck -3.42837 -6.88875 5.06237
head -0.812641 -3.44102 2.77366
rclavicle -4.96962e-015 6.75868e-015
rhumerus -16.4547 22.0358 -85.6559
rradius 122.657
rwrist 21.016
rhand 14.4779 -2.92014
rfingers 7.12502
rthumb 39.3599 -28.3361
lclavicle -4.96962e-015 6.75868e-015
lhumerus -6.28458 -29.4456 81.6378
lradius 116.753
lwrist -14.7593
lhand 18.5774 37.8392
lfingers 7.12502
lthumb 43.2076 62.0114
rfemur -38.4048 7.18907 10.9112
rtibia 51.1941
rfoot -18.7622 -7.4369
rtoes -20.2486
lfemur -31.8151 10.5164 -25.8571
ltibia 52.251
lfoot -27.8742 14.8828
ltoes -13.4286
542
root 1.14685 16.9 -1.43598 5.22842 -20.7553 3.33118
lowerback 17.3394 1.13354 -1.54395
upperback 7.17194 1.151 0.0970855
thorax -2.08831 0.50732 0.76197
lowerneck 0.932719 -5.19265 -6.43862
upperneck -3.42435 -6.92798 5.07568
head -0.816624 -3.46177 2.77107
rclavicle 2.98177e-015 -1.70955e-014
rhumerus -16.3164 21.8392 -85.59
rradius 122.662
rwrist 21.0901
rhand 14.3906 -3.09679
rfingers 7.12502
rthumb 39.2777 -28.5367
lclavicle 2.98177e-015 -1.70955e-014
lhumerus -6.07623 -29.596 81.4076
lradius 116.963
lwrist -14.7432
lhand 17.843 37.7693
lfingers 7.12502
lthumb 42.5206 62.1825
rfemur -38.4982 7.19784 10.937
rtibia 51.4315
rfoot -18.8909 -7.48542
rtoes -20.0965
lfemur -31.9309 10.5196 -25.8224
ltibia 52.4743
lfoot -27.9245 14.8221
ltoes -13.4552
543
root 1.13886 16.8842 -1.44693 5.20532 -20.6698 3.31777
lowerback 17.4117 1.16608 -1.53351
upperback 7.20591 1.19343 0.0958413
thorax -2.09073 0.52816 0.746038
lowerneck 0.895399 -5.23051 -6.41332
upperneck -3.40342 -6.97449 5.1456
head -0.7989 -3.48611 2.78754
rclavicle -1.49089e-014 -9.54166e-015
rhumerus -16.1827 21.5749 -85.543
rradius 122.652
rwrist 21.1928
rhand 14.3195 -3.02557
rfingers 7.12502
rthumb 39.2107 -28.4849
lclavicle -1.49089e-014 -9.54166e-015
lhumerus -5.81832 -29.7492 81.147
lradius 117.131
lwrist -14.7664
lhand 17.3004 37.5842
lfingers 7.12502
lthumb 42.0124 62.1701
rfemur -38.6534 7.22073 10.9798
rtibia 51.7168
rfoot -18.9748 -7.53867
rtoes -19.6744
lfemur -32.0862 10.5135 -25.7713
ltibia 52.7273
lfoot -27.925 14.8067
ltoes -13.6107
544
root 1.13123 16.8661 -1.45943 5.21037 -20.5394 3.28863
lowerback 17.4876 1.18117 -1.4883
upperback 7.22495 1.21921 0.104007
thorax -2.11002 0.541544 0.723222
lowerneck 0.884875 -5.28818 -6.40184
upperneck -3.4371 -7.04906 5.19422
head -0.801787 -3.52406 2.8016
rclavicle -4.57205e-015 2.70347e-014
rhumerus -16.1135 21.2927 -85.5176
rradius 122.642
rwrist 21.2419
rhand 14.2253 -2.59598
rfingers 7.12502
rthumb 39.122 -28.081
lclavicle -4.57205e-015 2.70347e-014
lhumerus -5.60238 -29.8387 80.9523
lradius 117.287
lwrist -14.8308
lhand 17.1171 37.3792
lfingers 7.12502
lthumb 41.8406 62.0224
rfemur -38.8393 7.22074 11.0322
rtibia 52.0452
rfoot -19.0557 -7.6583
rtoes -19.5715
lfemur -32.2839 10.471 -25.7042
ltibia 53.0118
lfoot -27.9716 14.7569
ltoes -13.8122
545
root 1.12434 16.8496 -1.46843 5.12785 -20.4289 3.3636
lowerback 17.5693 1.19692 -1.53673
upperback 7.26427 1.22963 0.0845103
thorax -2.11146 0.545808 0.72725
lowerneck 0.973109 -5.33307 -6.40313
upperneck -3.53752 -7.11108 5.24728
head -0.843359 -3.55633 2.82502
rclavicle -3.27995e-014 -1.15295e-014
rhumerus -16.0097 21.0709 -85.5107
rradius 122.657
rwrist 21.2686
rhand 14.4463 -1.98722
rfingers 7.12502
rthumb 39.3302 -27.4119
lclavicle -3.27995e-014 -1.15295e-014
lhumerus -5.42425 -29.8602 80.796
lradius 117.454
lwrist -14.9119
lhand 17.0624 37.2576
lfingers 7.12502
lthumb 41.7893 61.9179
rfemur -38.962 7.16339 10.9933
rtibia 52.4221
rfoot -19.0683 -7.67033
rtoes -19.1242
lfemur -32.3939 10.4355 -25.7459
ltibia 53.2917
lfoot -28.0235 14.747
ltoes -13.9721
546
root 1.11587 16.8336 -1.47749 5.02801 -20.3054 3.44395
lowerback 17.641 1.20325 -1.61814
upperback 7.32678 1.22298 0.0775919
thorax -2.08341 0.540449 0.766795
lowerneck 1.03248 -5.34098 -6.39917
upperneck -3.6431 -7.12231 5.28069
head -0.885652 -3.56268 2.8404
rclavicle -2.78299e-015 -1.43125e-014
rhumerus -15.9109 20.8649 -85.5168
rradius 122.719
rwrist 21.4883
rhand 14.732 -1.95025
rfingers 7.12502
rthumb 39.5993 -27.2959
lclavicle -2.78299e-015 -1.43125e-014
lhumerus -5.23459 -29.8723 80.6594
lradius 117.603
lwrist -14.963
lhand 16.9394 37.322
lfingers 7.12502
lthumb 41.6739 62.0204
rfemur -39.0516 7.09367 10.9667
rtibia 52.7967
rfoot -19.0164 -7.65943
rtoes -18.5804
lfemur -32.4922 10.366 -25.7766
ltibia 53.5887
lfoot -28.0981 14.7089
ltoes -14.0013
547
root 1.10585 16.8127 -1.48733 4.91635 -20.1851 3.47615
lowerback 17.7512 1.22554 -1.66089
upperback 7.38302 1.24281 0.0839721
thorax -2.08223 0.548794 0.792758
lowerneck 1.07435 -5.36817 -6.36737
upperneck -3.67204 -7.15955 5.29037
head -0.900609 -3.5822 2.84004
rclavicle -2.72335e-014 -3.97569e-016
rhumerus -15.876 20.6124 -85.547
rradius 122.784
rwrist 21.7926
rhand 14.8283 -2.14631
rfingers 7.12502
rthumb 39.69 -27.4651
lclavicle -2.72335e-014 -3.97569e-016
lhumerus -5.06839 -29.9368 80.5538
lradius 117.747
lwrist -14.9725
lhand 16.819 37.4678
lfingers 7.12502
lthumb 41.561 62.2033
rfemur -39.1331 7.06737 10.9957
rtibia 53.1457
rfoot -19.1479 -7.79072
rtoes -18.7743
lfemur -32.5828 10.317 -25.7489
ltibia 53.9111
lfoot -28.1885 14.7438
ltoes -14.451
548
root 1.09729 16.7904 -1.49622 4.83811 -20.0727 3.42428
lowerback 17.8702 1.22047 -1.64467
upperback 7.42731 1.23747 0.122858
thorax -2.09727 0.545375 0.824182
lowerneck 1.11015 -5.38208 -6.41811
upperneck -3.6781 -7.17996 5.33438
head -0.904166 -3.59276 2.86533
rclavicle -4.03533e-014 1.31198e-014
rhumerus -15.8689 20.5361 -85.5926
rradius 122.753
rwrist 21.7679
rhand 14.4969 -2.10169
rfingers 7.12502
rthumb 39.3779 -27.5124
lclavicle -4.03533e-014 1.31198e-014
lhumerus -4.98996 -29.8711 80.4962
lradius 117.904
lwrist -15.0986
lhand 16.7971 37.4749
lfingers 7.12502
lthumb 41.5405 62.217
rfemur -39.2136 7.08135 11.0862
rtibia 53.4394
rfoot -19.4747 -7.98527
rtoes -18.9631
lfemur -32.7015 10.3005 -25.644
ltibia 54.2579
lfoot -28.2195 14.7651
ltoes -14.8074
549
root 1.08978 16.7708 -1.50361 4.7979 -19.9772 3.36133
lowerback 17.9262 1.21869 -1.55741
upperback 7.47607 1.24831 0.132857
thorax -2.07332 0.551442 0.782876
lowerneck 1.22885 -5.41262 -6.51497
upperneck -3.76845 -7.22514 5.44313
head -0.943637 -3.61664 2.92605
rclavicle -4.96962e-015 4.6118e-014
rhumerus -15.8945 20.4189 -85.6633
rradius 122.726
rwrist 21.7075
rhand 14.1828 -2.41237
rfingers 7.12502
rthumb 39.0818 -27.9089
lclavicle -4.96962e-015 4.6118e-014
lhumerus -4.84438 -29.8563 80.4088
lradius 117.978
lwrist -15.2237
lhand 16.7288 37.38
lfingers 7.12502
lthumb 41.4764 62.1431
rfemur -39.3028 7.08719 11.181
rtibia 53.7249
rfoot -19.7796 -8.05506
rtoes -18.6616
lfemur -32.8443 10.318 -25.5419
ltibia 54.598
lfoot -28.2189 14.71
ltoes -14.8843
550
root 1.0819 16.7517 -1.50813 4.70306 -19.9121 3.35045
lowerback 17.9527 1.23201 -1.54638
upperback 7.5638 1.26704 0.153028
thorax -1.99435 0.559162 0.794743
lowerneck 1.35843 -5.4296 -6.58134
upperneck -3.90452 -7.25369 5.47666
head -1.00462 -3.63134 2.95806
rclavicle 1.59028e-015 1.15295e-014
rhumerus -15.8529 20.2934 -85.671
rradius 122.746
rwrist 21.7573
rhand 14.3242 -2.83586
rfingers 7.12502
rthumb 39.2151 -28.2939
lclavicle 1.59028e-015 1.15295e-014
lhumerus -4.63263 -29.8005 80.2996
lradius 118.063
lwrist -15.3048
lhand 16.7445 37.4134
lfingers 7.12502
lthumb 41.4912 62.1716
rfemur -39.3433 7.11371 11.2256
rtibia 54.0281
rfoot -19.9758 -8.09194
rtoes -18.3248
lfemur -32.916 10.3424 -25.4867
ltibia 54.9159
lfoot -28.3117 14.6374
ltoes -14.9539
551
root 1.07421 16.7323 -1.51167 4.54933 -19.8608 3.4519
lowerback 18.0094 1.2493 -1.63952
upperback 7.64699 1.27204 0.136036
thorax -1.93653 0.558826 0.828524
lowerneck 1.39777 -5.43177 -6.57205
upperneck -3.95458 -7.25854 5.45314
head -1.02847 -3.63371 2.95145
rclavicle -5.82439e-014 2.82274e-014
rhumerus -15.7766 20.1631 -85.7125
rradius 122.713
rwrist 21.8139
rhand 14.5677 -2.96981
rfingers 7.12502
rthumb 39.4446 -28.361
lclavicle -5.82439e-014 2.82274e-014
lhumerus -4.49235 -29.6568 80.2357
lradius 118.095
lwrist -15.4145
lhand 16.9034 37.2609
lfingers 7.12502
lthumb 41.6401 61.9703
rfemur -39.3907 7.11627 11.1607
rtibia 54.3709
rfoot -20.1459 -8.20317
rtoes -18.3568
lfemur -32.9443 10.3697 -25.5517
ltibia 55.2014
lfoot -28.3956 14.6634
ltoes -15.2682
552
root 1.06506 16.7126 -1.51713 4.40659 -19.802 3.47172
lowerback 18.135 1.26798 -1.69495
upperback 7.70469 1.28465 0.152833
thorax -1.94168 0.562949 0.873769
lowerneck 1.41906 -5.44692 -6.58339
upperneck -3.9829 -7.27939 5.46891
head -1.03897 -3.64436 2.96034
rclavicle 2.98177e-015 2.78299e-015
rhumerus -15.7181 20.0343 -85.7572
rradius 122.64
rwrist 21.8659
rhand 14.7729 -3.1387
rfingers 7.12502
rthumb 39.6378 -28.473
lclavicle 2.98177e-015 2.78299e-015
lhumerus -4.32262 -29.5118 80.178
lradius 118.01
lwrist -15.4363
lhand 16.9849 37.0249
lfingers 7.12502
lthumb 41.7166 61.7092
rfemur -39.4101 7.14994 11.1988
rtibia 54.7212
rfoot -20.1991 -8.42872
rtoes -19.0539
lfemur -32.9585 10.4036 -25.5138
ltibia 55.4785
lfoot -28.5403 14.5718
ltoes -15.0707
553
root 1.0543 16.6941 -1.52344 4.24542 -19.7357 3.41879
lowerback 18.2549 1.29947 -1.70471
upperback 7.80477 1.32226 0.203067
thorax -1.8993 0.578909 0.924059
lowerneck 1.49857 -5.49135 -6.60095
upperneck -4.08109 -7.34188 5.48383
head -1.07926 -3.67606 2.97424
rclavicle -1.19271e-014 4.37326e-015
rhumerus -15.6113 19.8218 -85.7672
rradius 122.545
rwrist 21.9442
rhand 15.058 -3.18733
rfingers 7.12502
rthumb 39.9063 -28.4416
lclavicle -1.19271e-014 4.37326e-015
lhumerus -4.01366 -29.3965 80.0679
lradius 117.858
lwrist -15.4485
lhand 17.1088 36.9885
lfingers 7.12502
lthumb 41.8328 61.6343
rfemur -39.3613 7.22617 11.3191
rtibia 55.0461
rfoot -20.1782 -8.51363
rtoes -18.8658
lfemur -32.9088 10.4378 -25.3823
ltibia 55.7298
lfoot -28.6917 14.4275
ltoes -14.8
